<mxfile host="app.diagrams.net" modified="2021-10-26T12:04:06.147Z" agent="5.0 (Macintosh)" etag="s_MAGzvvkPbSyyP6mYVj" version="15.5.9" type="github">
  <diagram id="QSPxkp033TPHewV9yBQ5" name="Page-1">
    <mxGraphModel dx="511" dy="451" grid="1" gridSize="10" guides="1" tooltips="1" connect="1" arrows="1" fold="1" page="1" pageScale="1" pageWidth="827" pageHeight="1169" math="0" shadow="0">
      <root>
        <mxCell id="0" />
        <mxCell id="1" parent="0" />
        <mxCell id="RfTS1drdJ-1XuSoSWJ7w-1" value="" style="ellipse;whiteSpace=wrap;html=1;aspect=fixed;" vertex="1" parent="1">
          <mxGeometry x="450" y="290" width="80" height="80" as="geometry" />
        </mxCell>
        <mxCell id="RfTS1drdJ-1XuSoSWJ7w-2" value="Vorlesung 03, 25.10.2021" style="text;html=1;strokeColor=none;fillColor=none;align=center;verticalAlign=middle;whiteSpace=wrap;rounded=0;" vertex="1" parent="1">
          <mxGeometry x="60" y="50" width="170" height="30" as="geometry" />
        </mxCell>
        <mxCell id="RfTS1drdJ-1XuSoSWJ7w-3" value="Aufgabe" style="text;html=1;strokeColor=none;fillColor=none;align=center;verticalAlign=middle;whiteSpace=wrap;rounded=0;" vertex="1" parent="1">
          <mxGeometry x="60" y="140" width="60" height="30" as="geometry" />
        </mxCell>
      </root>
    </mxGraphModel>
  </diagram>
</mxfile>
